$MeshFormat
4.1 0 8
$EndMeshFormat
$Entities
24 36 14 1
1 0 0 0 0 
2 0.14 0 0 0 
3 0.14 0 0.0131 0 
4 0.07375000000000001 0 0.0131 0 
5 0.07375000000000001 0 0.2869 0 
6 0.14 0 0.2869 0 
7 0.14 0 0.3 0 
8 0 0 0.3 0 
9 0 0 0.2869 0 
10 0.06625 0 0.2869 0 
11 0.06625 0 0.0131 0 
12 0 0 0.0131 0 
13 0 3 0 0 
14 0.14 3 0 0 
18 0.14 3 0.0131 0 
22 0.07375000000000001 3 0.0131 0 
26 0.07375000000000001 3 0.2869 0 
30 0.14 3 0.2869 0 
34 0.14 3 0.3 0 
38 0 3 0.3 0 
42 0 3 0.2869 0 
46 0.06625 3 0.2869 0 
50 0.06625 3 0.0131 0 
54 0 3 0.0131 0 
1 0 0 0 0.14 0 0 0 2 1 -2 
2 0.14 0 0 0.14 0 0.0131 0 2 2 -3 
3 0.07375000000000001 0 0.0131 0.14 0 0.0131 0 2 3 -4 
4 0.07375000000000001 0 0.0131 0.07375000000000001 0 0.2869 0 2 4 -5 
5 0.07375000000000001 0 0.2869 0.14 0 0.2869 0 2 5 -6 
6 0.14 0 0.2869 0.14 0 0.3 0 2 6 -7 
7 0 0 0.3 0.14 0 0.3 0 2 7 -8 
8 0 0 0.2869 0 0 0.3 0 2 8 -9 
9 0 0 0.2869 0.06625 0 0.2869 0 2 9 -10 
10 0.06625 0 0.0131 0.06625 0 0.2869 0 2 10 -11 
11 0 0 0.0131 0.06625 0 0.0131 0 2 11 -12 
12 0 0 0 0 0 0.0131 0 2 12 -1 
14 0 3 0 0.14 3 0 0 2 13 -14 
15 0.14 3 0 0.14 3 0.0131 0 2 14 -18 
16 0.07375000000000001 3 0.0131 0.14 3 0.0131 0 2 18 -22 
17 0.07375000000000001 3 0.0131 0.07375000000000001 3 0.2869 0 2 22 -26 
18 0.07375000000000001 3 0.2869 0.14 3 0.2869 0 2 26 -30 
19 0.14 3 0.2869 0.14 3 0.3 0 2 30 -34 
20 0 3 0.3 0.14 3 0.3 0 2 34 -38 
21 0 3 0.2869 0 3 0.3 0 2 38 -42 
22 0 3 0.2869 0.06625 3 0.2869 0 2 42 -46 
23 0.06625 3 0.0131 0.06625 3 0.2869 0 2 46 -50 
24 0 3 0.0131 0.06625 3 0.0131 0 2 50 -54 
25 0 3 0 0 3 0.0131 0 2 54 -13 
27 0 0 0 0 3 0 0 2 1 -13 
28 0.14 0 0 0.14 3 0 0 2 2 -14 
32 0.14 0 0.0131 0.14 3 0.0131 0 2 3 -18 
36 0.07375000000000001 0 0.0131 0.07375000000000001 3 0.0131 0 2 4 -22 
40 0.07375000000000001 0 0.2869 0.07375000000000001 3 0.2869 0 2 5 -26 
44 0.14 0 0.2869 0.14 3 0.2869 0 2 6 -30 
48 0.14 0 0.3 0.14 3 0.3 0 2 7 -34 
52 0 0 0.3 0 3 0.3 0 2 8 -38 
56 0 0 0.2869 0 3 0.2869 0 2 9 -42 
60 0.06625 0 0.2869 0.06625 3 0.2869 0 2 10 -46 
64 0.06625 0 0.0131 0.06625 3 0.0131 0 2 11 -50 
68 0 0 0.0131 0 3 0.0131 0 2 12 -54 
1 0 0 0 0.14 0 0.3 0 12 1 2 3 4 5 6 7 8 9 10 11 12 
29 0 0 0 0.14 3 0 0 4 1 28 -14 -27 
33 0.14 0 0 0.14 3 0.0131 0 4 2 32 -15 -28 
37 0.07375000000000001 0 0.0131 0.14 3 0.0131 0 4 3 36 -16 -32 
41 0.07375000000000001 0 0.0131 0.07375000000000001 3 0.2869 0 4 4 40 -17 -36 
45 0.07375000000000001 0 0.2869 0.14 3 0.2869 0 4 5 44 -18 -40 
49 0.14 0 0.2869 0.14 3 0.3 0 4 6 48 -19 -44 
53 0 0 0.3 0.14 3 0.3 0 4 7 52 -20 -48 
57 0 0 0.2869 0 3 0.3 0 4 8 56 -21 -52 
61 0 0 0.2869 0.06625 3 0.2869 0 4 9 60 -22 -56 
65 0.06625 0 0.0131 0.06625 3 0.2869 0 4 10 64 -23 -60 
69 0 0 0.0131 0.06625 3 0.0131 0 4 11 68 -24 -64 
73 0 0 0 0 3 0.0131 0 4 12 27 -25 -68 
74 0 3 0 0.14 3 0.3 0 12 14 15 16 17 18 19 20 21 22 23 24 25 
1 0 0 0 0.14 3 0.3 0 14 -1 74 29 33 37 41 45 49 53 57 61 65 69 73 
$EndEntities
$Nodes
75 630 1 630
0 1 0 1
1
0 0 0
0 2 0 1
2
0.14 0 0
0 3 0 1
3
0.14 0 0.0131
0 4 0 1
4
0.07375000000000001 0 0.0131
0 5 0 1
5
0.07375000000000001 0 0.2869
0 6 0 1
6
0.14 0 0.2869
0 7 0 1
7
0.14 0 0.3
0 8 0 1
8
0 0 0.3
0 9 0 1
9
0 0 0.2869
0 10 0 1
10
0.06625 0 0.2869
0 11 0 1
11
0.06625 0 0.0131
0 12 0 1
12
0 0 0.0131
0 13 0 1
13
0 3 0
0 14 0 1
14
0.14 3 0
0 18 0 1
15
0.14 3 0.0131
0 22 0 1
16
0.07375000000000001 3 0.0131
0 26 0 1
17
0.07375000000000001 3 0.2869
0 30 0 1
18
0.14 3 0.2869
0 34 0 1
19
0.14 3 0.3
0 38 0 1
20
0 3 0.3
0 42 0 1
21
0 3 0.2869
0 46 0 1
22
0.06625 3 0.2869
0 50 0 1
23
0.06625 3 0.0131
0 54 0 1
24
0 3 0.0131
1 1 0 2
25
26
0.04666666666655089 0 0
0.09333333333320473 0 0
1 2 0 0
1 3 0 1
27
0.106875000000084 0 0.0131
1 4 0 5
28
29
30
31
32
0.07375000000000001 0 0.05873333333323374
0.07375000000000001 0 0.1043666666664362
0.07375000000000001 0 0.1499999999996333
0.07375000000000001 0 0.1956333333330833
0.07375000000000001 0 0.2412666666665335
1 5 0 1
33
0.1068749999999106 0 0.2869
1 6 0 0
1 7 0 2
34
35
0.09333333333344711 0 0.3
0.04666666666679166 0 0.3
1 8 0 0
1 9 0 1
36
0.03312499999990979 0 0.2869
1 10 0 5
37
38
39
40
41
0.06625 0 0.2412666666667659
0.06625 0 0.1956333333335645
0.06625 0 0.1500000000003575
0.06625 0 0.1043666666669086
0.06625 0 0.05873333333345391
1 11 0 1
42
0.03312500000009101 0 0.0131
1 12 0 0
1 14 0 2
43
44
0.04666666666655089 3 0
0.09333333333320473 3 0
1 15 0 0
1 16 0 1
45
0.106875000000084 3 0.0131
1 17 0 5
46
47
48
49
50
0.07375000000000001 3 0.05873333333323374
0.07375000000000001 3 0.1043666666664362
0.07375000000000001 3 0.1499999999996333
0.07375000000000001 3 0.1956333333330833
0.07375000000000001 3 0.2412666666665335
1 18 0 1
51
0.1068749999999106 3 0.2869
1 19 0 0
1 20 0 2
52
53
0.09333333333344711 3 0.3
0.04666666666679166 3 0.3
1 21 0 0
1 22 0 1
54
0.03312499999990979 3 0.2869
1 23 0 5
55
56
57
58
59
0.06625 3 0.2412666666667659
0.06625 3 0.1956333333335645
0.06625 3 0.1500000000003575
0.06625 3 0.1043666666669086
0.06625 3 0.05873333333345391
1 24 0 1
60
0.03312500000009101 3 0.0131
1 25 0 0
1 27 0 19
61
62
63
64
65
66
67
68
69
70
71
72
73
74
75
76
77
78
79
0 0.15 0
0 0.3 0
0 0.45 0
0 0.6000000000000001 0
0 0.75 0
0 0.8999999999999999 0
0 1.05 0
0 1.2 0
0 1.35 0
0 1.5 0
0 1.65 0
0 1.8 0
0 1.95 0
0 2.1 0
0 2.25 0
0 2.4 0
0 2.55 0
0 2.7 0
0 2.85 0
1 28 0 19
80
81
82
83
84
85
86
87
88
89
90
91
92
93
94
95
96
97
98
0.14 0.15 0
0.14 0.3 0
0.14 0.45 0
0.14 0.6000000000000001 0
0.14 0.75 0
0.14 0.8999999999999999 0
0.14 1.05 0
0.14 1.2 0
0.14 1.35 0
0.14 1.5 0
0.14 1.65 0
0.14 1.8 0
0.14 1.95 0
0.14 2.1 0
0.14 2.25 0
0.14 2.4 0
0.14 2.55 0
0.14 2.7 0
0.14 2.85 0
1 32 0 19
99
100
101
102
103
104
105
106
107
108
109
110
111
112
113
114
115
116
117
0.14 0.15 0.0131
0.14 0.3 0.0131
0.14 0.45 0.0131
0.14 0.6000000000000001 0.0131
0.14 0.75 0.0131
0.14 0.8999999999999999 0.0131
0.14 1.05 0.0131
0.14 1.2 0.0131
0.14 1.35 0.0131
0.14 1.5 0.0131
0.14 1.65 0.0131
0.14 1.8 0.0131
0.14 1.95 0.0131
0.14 2.1 0.0131
0.14 2.25 0.0131
0.14 2.4 0.0131
0.14 2.55 0.0131
0.14 2.7 0.0131
0.14 2.85 0.0131
1 36 0 19
118
119
120
121
122
123
124
125
126
127
128
129
130
131
132
133
134
135
136
0.07375000000000001 0.15 0.0131
0.07375000000000001 0.3 0.0131
0.07375000000000001 0.45 0.0131
0.07375000000000001 0.6000000000000001 0.0131
0.07375000000000001 0.75 0.0131
0.07375000000000001 0.8999999999999999 0.0131
0.07375000000000001 1.05 0.0131
0.07375000000000001 1.2 0.0131
0.07375000000000001 1.35 0.0131
0.07375000000000001 1.5 0.0131
0.07375000000000001 1.65 0.0131
0.07375000000000001 1.8 0.0131
0.07375000000000001 1.95 0.0131
0.07375000000000001 2.1 0.0131
0.07375000000000001 2.25 0.0131
0.07375000000000001 2.4 0.0131
0.07375000000000001 2.55 0.0131
0.07375000000000001 2.7 0.0131
0.07375000000000001 2.85 0.0131
1 40 0 19
137
138
139
140
141
142
143
144
145
146
147
148
149
150
151
152
153
154
155
0.07375000000000001 0.15 0.2869
0.07375000000000001 0.3 0.2869
0.07375000000000001 0.45 0.2869
0.07375000000000001 0.6000000000000001 0.2869
0.07375000000000001 0.75 0.2869
0.07375000000000001 0.8999999999999999 0.2869
0.07375000000000001 1.05 0.2869
0.07375000000000001 1.2 0.2869
0.07375000000000001 1.35 0.2869
0.07375000000000001 1.5 0.2869
0.07375000000000001 1.65 0.2869
0.07375000000000001 1.8 0.2869
0.07375000000000001 1.95 0.2869
0.07375000000000001 2.1 0.2869
0.07375000000000001 2.25 0.2869
0.07375000000000001 2.4 0.2869
0.07375000000000001 2.55 0.2869
0.07375000000000001 2.7 0.2869
0.07375000000000001 2.85 0.2869
1 44 0 19
156
157
158
159
160
161
162
163
164
165
166
167
168
169
170
171
172
173
174
0.14 0.15 0.2869
0.14 0.3 0.2869
0.14 0.45 0.2869
0.14 0.6000000000000001 0.2869
0.14 0.75 0.2869
0.14 0.8999999999999999 0.2869
0.14 1.05 0.2869
0.14 1.2 0.2869
0.14 1.35 0.2869
0.14 1.5 0.2869
0.14 1.65 0.2869
0.14 1.8 0.2869
0.14 1.95 0.2869
0.14 2.1 0.2869
0.14 2.25 0.2869
0.14 2.4 0.2869
0.14 2.55 0.2869
0.14 2.7 0.2869
0.14 2.85 0.2869
1 48 0 19
175
176
177
178
179
180
181
182
183
184
185
186
187
188
189
190
191
192
193
0.14 0.15 0.3
0.14 0.3 0.3
0.14 0.45 0.3
0.14 0.6000000000000001 0.3
0.14 0.75 0.3
0.14 0.8999999999999999 0.3
0.14 1.05 0.3
0.14 1.2 0.3
0.14 1.35 0.3
0.14 1.5 0.3
0.14 1.65 0.3
0.14 1.8 0.3
0.14 1.95 0.3
0.14 2.1 0.3
0.14 2.25 0.3
0.14 2.4 0.3
0.14 2.55 0.3
0.14 2.7 0.3
0.14 2.85 0.3
1 52 0 19
194
195
196
197
198
199
200
201
202
203
204
205
206
207
208
209
210
211
212
0 0.15 0.3
0 0.3 0.3
0 0.45 0.3
0 0.6000000000000001 0.3
0 0.75 0.3
0 0.8999999999999999 0.3
0 1.05 0.3
0 1.2 0.3
0 1.35 0.3
0 1.5 0.3
0 1.65 0.3
0 1.8 0.3
0 1.95 0.3
0 2.1 0.3
0 2.25 0.3
0 2.4 0.3
0 2.55 0.3
0 2.7 0.3
0 2.85 0.3
1 56 0 19
213
214
215
216
217
218
219
220
221
222
223
224
225
226
227
228
229
230
231
0 0.15 0.2869
0 0.3 0.2869
0 0.45 0.2869
0 0.6000000000000001 0.2869
0 0.75 0.2869
0 0.8999999999999999 0.2869
0 1.05 0.2869
0 1.2 0.2869
0 1.35 0.2869
0 1.5 0.2869
0 1.65 0.2869
0 1.8 0.2869
0 1.95 0.2869
0 2.1 0.2869
0 2.25 0.2869
0 2.4 0.2869
0 2.55 0.2869
0 2.7 0.2869
0 2.85 0.2869
1 60 0 19
232
233
234
235
236
237
238
239
240
241
242
243
244
245
246
247
248
249
250
0.06625 0.15 0.2869
0.06625 0.3 0.2869
0.06625 0.45 0.2869
0.06625 0.6000000000000001 0.2869
0.06625 0.75 0.2869
0.06625 0.8999999999999999 0.2869
0.06625 1.05 0.2869
0.06625 1.2 0.2869
0.06625 1.35 0.2869
0.06625 1.5 0.2869
0.06625 1.65 0.2869
0.06625 1.8 0.2869
0.06625 1.95 0.2869
0.06625 2.1 0.2869
0.06625 2.25 0.2869
0.06625 2.4 0.2869
0.06625 2.55 0.2869
0.06625 2.7 0.2869
0.06625 2.85 0.2869
1 64 0 19
251
252
253
254
255
256
257
258
259
260
261
262
263
264
265
266
267
268
269
0.06625 0.15 0.0131
0.06625 0.3 0.0131
0.06625 0.45 0.0131
0.06625 0.6000000000000001 0.0131
0.06625 0.75 0.0131
0.06625 0.8999999999999999 0.0131
0.06625 1.05 0.0131
0.06625 1.2 0.0131
0.06625 1.35 0.0131
0.06625 1.5 0.0131
0.06625 1.65 0.0131
0.06625 1.8 0.0131
0.06625 1.95 0.0131
0.06625 2.1 0.0131
0.06625 2.25 0.0131
0.06625 2.4 0.0131
0.06625 2.55 0.0131
0.06625 2.7 0.0131
0.06625 2.85 0.0131
1 68 0 19
270
271
272
273
274
275
276
277
278
279
280
281
282
283
284
285
286
287
288
0 0.15 0.0131
0 0.3 0.0131
0 0.45 0.0131
0 0.6000000000000001 0.0131
0 0.75 0.0131
0 0.8999999999999999 0.0131
0 1.05 0.0131
0 1.2 0.0131
0 1.35 0.0131
0 1.5 0.0131
0 1.65 0.0131
0 1.8 0.0131
0 1.95 0.0131
0 2.1 0.0131
0 2.25 0.0131
0 2.4 0.0131
0 2.55 0.0131
0 2.7 0.0131
0 2.85 0.0131
2 1 0 0
2 29 0 38
289
290
291
292
293
294
295
296
297
298
299
300
301
302
303
304
305
306
307
308
309
310
311
312
313
314
315
316
317
318
319
320
321
322
323
324
325
326
0.04666666666655089 0.15 0
0.04666666666655089 0.3 0
0.04666666666655089 0.45 0
0.04666666666655089 0.6000000000000001 0
0.04666666666655089 0.75 0
0.04666666666655089 0.8999999999999999 0
0.04666666666655089 1.05 0
0.04666666666655089 1.2 0
0.04666666666655089 1.35 0
0.04666666666655089 1.5 0
0.04666666666655089 1.65 0
0.04666666666655089 1.8 0
0.04666666666655089 1.95 0
0.04666666666655089 2.1 0
0.04666666666655089 2.25 0
0.04666666666655089 2.4 0
0.04666666666655089 2.55 0
0.04666666666655089 2.7 0
0.04666666666655089 2.85 0
0.09333333333320473 0.15 0
0.09333333333320473 0.3 0
0.09333333333320473 0.45 0
0.09333333333320473 0.6000000000000001 0
0.09333333333320473 0.75 0
0.09333333333320473 0.8999999999999999 0
0.09333333333320473 1.05 0
0.09333333333320473 1.2 0
0.09333333333320473 1.35 0
0.09333333333320473 1.5 0
0.09333333333320473 1.65 0
0.09333333333320473 1.8 0
0.09333333333320473 1.95 0
0.09333333333320473 2.1 0
0.09333333333320473 2.25 0
0.09333333333320473 2.4 0
0.09333333333320473 2.55 0
0.09333333333320473 2.7 0
0.09333333333320473 2.85 0
2 33 0 0
2 37 0 19
327
328
329
330
331
332
333
334
335
336
337
338
339
340
341
342
343
344
345
0.106875000000084 0.15 0.0131
0.106875000000084 0.3 0.0131
0.106875000000084 0.45 0.0131
0.106875000000084 0.6000000000000001 0.0131
0.106875000000084 0.75 0.0131
0.106875000000084 0.8999999999999999 0.0131
0.106875000000084 1.05 0.0131
0.106875000000084 1.2 0.0131
0.106875000000084 1.35 0.0131
0.106875000000084 1.5 0.0131
0.106875000000084 1.65 0.0131
0.106875000000084 1.8 0.0131
0.106875000000084 1.95 0.0131
0.106875000000084 2.1 0.0131
0.106875000000084 2.25 0.0131
0.106875000000084 2.4 0.0131
0.106875000000084 2.55 0.0131
0.106875000000084 2.7 0.0131
0.106875000000084 2.85 0.0131
2 41 0 95
346
347
348
349
350
351
352
353
354
355
356
357
358
359
360
361
362
363
364
365
366
367
368
369
370
371
372
373
374
375
376
377
378
379
380
381
382
383
384
385
386
387
388
389
390
391
392
393
394
395
396
397
398
399
400
401
402
403
404
405
406
407
408
409
410
411
412
413
414
415
416
417
418
419
420
421
422
423
424
425
426
427
428
429
430
431
432
433
434
435
436
437
438
439
440
0.07375000000000001 0.15 0.05873333333323374
0.07375000000000001 0.3 0.05873333333323374
0.07375000000000001 0.45 0.05873333333323374
0.07375000000000001 0.6000000000000001 0.05873333333323374
0.07375000000000001 0.75 0.05873333333323374
0.07375000000000001 0.8999999999999999 0.05873333333323374
0.07375000000000001 1.05 0.05873333333323374
0.07375000000000001 1.2 0.05873333333323374
0.07375000000000001 1.35 0.05873333333323374
0.07375000000000001 1.5 0.05873333333323374
0.07375000000000001 1.65 0.05873333333323374
0.07375000000000001 1.8 0.05873333333323374
0.07375000000000001 1.95 0.05873333333323374
0.07375000000000001 2.1 0.05873333333323374
0.07375000000000001 2.25 0.05873333333323374
0.07375000000000001 2.4 0.05873333333323374
0.07375000000000001 2.55 0.05873333333323374
0.07375000000000001 2.7 0.05873333333323374
0.07375000000000001 2.85 0.05873333333323374
0.07375000000000001 0.15 0.1043666666664362
0.07375000000000001 0.3 0.1043666666664362
0.07375000000000001 0.45 0.1043666666664362
0.07375000000000001 0.6000000000000001 0.1043666666664362
0.07375000000000001 0.75 0.1043666666664362
0.07375000000000001 0.8999999999999999 0.1043666666664362
0.07375000000000001 1.05 0.1043666666664362
0.07375000000000001 1.2 0.1043666666664362
0.07375000000000001 1.35 0.1043666666664362
0.07375000000000001 1.5 0.1043666666664362
0.07375000000000001 1.65 0.1043666666664362
0.07375000000000001 1.8 0.1043666666664362
0.07375000000000001 1.95 0.1043666666664362
0.07375000000000001 2.1 0.1043666666664362
0.07375000000000001 2.25 0.1043666666664362
0.07375000000000001 2.4 0.1043666666664362
0.07375000000000001 2.55 0.1043666666664362
0.07375000000000001 2.7 0.1043666666664362
0.07375000000000001 2.85 0.1043666666664362
0.07375000000000001 0.15 0.1499999999996333
0.07375000000000001 0.3 0.1499999999996333
0.07375000000000001 0.45 0.1499999999996333
0.07375000000000001 0.6000000000000001 0.1499999999996333
0.07375000000000001 0.75 0.1499999999996333
0.07375000000000001 0.8999999999999999 0.1499999999996333
0.07375000000000001 1.05 0.1499999999996333
0.07375000000000001 1.2 0.1499999999996333
0.07375000000000001 1.35 0.1499999999996333
0.07375000000000001 1.5 0.1499999999996333
0.07375000000000001 1.65 0.1499999999996333
0.07375000000000001 1.8 0.1499999999996333
0.07375000000000001 1.95 0.1499999999996333
0.07375000000000001 2.1 0.1499999999996333
0.07375000000000001 2.25 0.1499999999996333
0.07375000000000001 2.4 0.1499999999996333
0.07375000000000001 2.55 0.1499999999996333
0.07375000000000001 2.7 0.1499999999996333
0.07375000000000001 2.85 0.1499999999996333
0.07375000000000001 0.15 0.1956333333330833
0.07375000000000001 0.3 0.1956333333330833
0.07375000000000001 0.45 0.1956333333330833
0.07375000000000001 0.6000000000000001 0.1956333333330833
0.07375000000000001 0.75 0.1956333333330833
0.07375000000000001 0.8999999999999999 0.1956333333330833
0.07375000000000001 1.05 0.1956333333330833
0.07375000000000001 1.2 0.1956333333330833
0.07375000000000001 1.35 0.1956333333330833
0.07375000000000001 1.5 0.1956333333330833
0.07375000000000001 1.65 0.1956333333330833
0.07375000000000001 1.8 0.1956333333330833
0.07375000000000001 1.95 0.1956333333330833
0.07375000000000001 2.1 0.1956333333330833
0.07375000000000001 2.25 0.1956333333330833
0.07375000000000001 2.4 0.1956333333330833
0.07375000000000001 2.55 0.1956333333330833
0.07375000000000001 2.7 0.1956333333330833
0.07375000000000001 2.85 0.1956333333330833
0.07375000000000001 0.15 0.2412666666665335
0.07375000000000001 0.3 0.2412666666665335
0.07375000000000001 0.45 0.2412666666665335
0.07375000000000001 0.6000000000000001 0.2412666666665335
0.07375000000000001 0.75 0.2412666666665335
0.07375000000000001 0.8999999999999999 0.2412666666665335
0.07375000000000001 1.05 0.2412666666665335
0.07375000000000001 1.2 0.2412666666665335
0.07375000000000001 1.35 0.2412666666665335
0.07375000000000001 1.5 0.2412666666665335
0.07375000000000001 1.65 0.2412666666665335
0.07375000000000001 1.8 0.2412666666665335
0.07375000000000001 1.95 0.2412666666665335
0.07375000000000001 2.1 0.2412666666665335
0.07375000000000001 2.25 0.2412666666665335
0.07375000000000001 2.4 0.2412666666665335
0.07375000000000001 2.55 0.2412666666665335
0.07375000000000001 2.7 0.2412666666665335
0.07375000000000001 2.85 0.2412666666665335
2 45 0 19
441
442
443
444
445
446
447
448
449
450
451
452
453
454
455
456
457
458
459
0.1068749999999106 0.15 0.2869
0.1068749999999106 0.3 0.2869
0.1068749999999106 0.45 0.2869
0.1068749999999106 0.6000000000000001 0.2869
0.1068749999999106 0.75 0.2869
0.1068749999999106 0.8999999999999999 0.2869
0.1068749999999106 1.05 0.2869
0.1068749999999106 1.2 0.2869
0.1068749999999106 1.35 0.2869
0.1068749999999106 1.5 0.2869
0.1068749999999106 1.65 0.2869
0.1068749999999106 1.8 0.2869
0.1068749999999106 1.95 0.2869
0.1068749999999106 2.1 0.2869
0.1068749999999106 2.25 0.2869
0.1068749999999106 2.4 0.2869
0.1068749999999106 2.55 0.2869
0.1068749999999106 2.7 0.2869
0.1068749999999106 2.85 0.2869
2 49 0 0
2 53 0 38
460
461
462
463
464
465
466
467
468
469
470
471
472
473
474
475
476
477
478
479
480
481
482
483
484
485
486
487
488
489
490
491
492
493
494
495
496
497
0.09333333333344711 0.15 0.3
0.09333333333344711 0.3 0.3
0.09333333333344711 0.45 0.3
0.09333333333344711 0.6000000000000001 0.3
0.09333333333344711 0.75 0.3
0.09333333333344711 0.8999999999999999 0.3
0.09333333333344711 1.05 0.3
0.09333333333344711 1.2 0.3
0.09333333333344711 1.35 0.3
0.09333333333344711 1.5 0.3
0.09333333333344711 1.65 0.3
0.09333333333344711 1.8 0.3
0.09333333333344711 1.95 0.3
0.09333333333344711 2.1 0.3
0.09333333333344711 2.25 0.3
0.09333333333344711 2.4 0.3
0.09333333333344711 2.55 0.3
0.09333333333344711 2.7 0.3
0.09333333333344711 2.85 0.3
0.04666666666679166 0.15 0.3
0.04666666666679166 0.3 0.3
0.04666666666679166 0.45 0.3
0.04666666666679166 0.6000000000000001 0.3
0.04666666666679166 0.75 0.3
0.04666666666679166 0.8999999999999999 0.3
0.04666666666679166 1.05 0.3
0.04666666666679166 1.2 0.3
0.04666666666679166 1.35 0.3
0.04666666666679166 1.5 0.3
0.04666666666679166 1.65 0.3
0.04666666666679166 1.8 0.3
0.04666666666679166 1.95 0.3
0.04666666666679166 2.1 0.3
0.04666666666679166 2.25 0.3
0.04666666666679166 2.4 0.3
0.04666666666679166 2.55 0.3
0.04666666666679166 2.7 0.3
0.04666666666679166 2.85 0.3
2 57 0 0
2 61 0 19
498
499
500
501
502
503
504
505
506
507
508
509
510
511
512
513
514
515
516
0.03312499999990979 0.15 0.2869
0.03312499999990979 0.3 0.2869
0.03312499999990979 0.45 0.2869
0.03312499999990979 0.6000000000000001 0.2869
0.03312499999990979 0.75 0.2869
0.03312499999990979 0.8999999999999999 0.2869
0.03312499999990979 1.05 0.2869
0.03312499999990979 1.2 0.2869
0.03312499999990979 1.35 0.2869
0.03312499999990979 1.5 0.2869
0.03312499999990979 1.65 0.2869
0.03312499999990979 1.8 0.2869
0.03312499999990979 1.95 0.2869
0.03312499999990979 2.1 0.2869
0.03312499999990979 2.25 0.2869
0.03312499999990979 2.4 0.2869
0.03312499999990979 2.55 0.2869
0.03312499999990979 2.7 0.2869
0.03312499999990979 2.85 0.2869
2 65 0 95
517
518
519
520
521
522
523
524
525
526
527
528
529
530
531
532
533
534
535
536
537
538
539
540
541
542
543
544
545
546
547
548
549
550
551
552
553
554
555
556
557
558
559
560
561
562
563
564
565
566
567
568
569
570
571
572
573
574
575
576
577
578
579
580
581
582
583
584
585
586
587
588
589
590
591
592
593
594
595
596
597
598
599
600
601
602
603
604
605
606
607
608
609
610
611
0.06625 0.15 0.2412666666667659
0.06625 0.3 0.2412666666667659
0.06625 0.45 0.2412666666667659
0.06625 0.6000000000000001 0.2412666666667659
0.06625 0.75 0.2412666666667659
0.06625 0.8999999999999999 0.2412666666667659
0.06625 1.05 0.2412666666667659
0.06625 1.2 0.2412666666667659
0.06625 1.35 0.2412666666667659
0.06625 1.5 0.2412666666667659
0.06625 1.65 0.2412666666667659
0.06625 1.8 0.2412666666667659
0.06625 1.95 0.2412666666667659
0.06625 2.1 0.2412666666667659
0.06625 2.25 0.2412666666667659
0.06625 2.4 0.2412666666667659
0.06625 2.55 0.2412666666667659
0.06625 2.7 0.2412666666667659
0.06625 2.85 0.2412666666667659
0.06625 0.15 0.1956333333335645
0.06625 0.3 0.1956333333335645
0.06625 0.45 0.1956333333335645
0.06625 0.6000000000000001 0.1956333333335645
0.06625 0.75 0.1956333333335645
0.06625 0.8999999999999999 0.1956333333335645
0.06625 1.05 0.1956333333335645
0.06625 1.2 0.1956333333335645
0.06625 1.35 0.1956333333335645
0.06625 1.5 0.1956333333335645
0.06625 1.65 0.1956333333335645
0.06625 1.8 0.1956333333335645
0.06625 1.95 0.1956333333335645
0.06625 2.1 0.1956333333335645
0.06625 2.25 0.1956333333335645
0.06625 2.4 0.1956333333335645
0.06625 2.55 0.1956333333335645
0.06625 2.7 0.1956333333335645
0.06625 2.85 0.1956333333335645
0.06625 0.15 0.1500000000003575
0.06625 0.3 0.1500000000003575
0.06625 0.45 0.1500000000003575
0.06625 0.6000000000000001 0.1500000000003575
0.06625 0.75 0.1500000000003575
0.06625 0.8999999999999999 0.1500000000003575
0.06625 1.05 0.1500000000003575
0.06625 1.2 0.1500000000003575
0.06625 1.35 0.1500000000003575
0.06625 1.5 0.1500000000003575
0.06625 1.65 0.1500000000003575
0.06625 1.8 0.1500000000003575
0.06625 1.95 0.1500000000003575
0.06625 2.1 0.1500000000003575
0.06625 2.25 0.1500000000003575
0.06625 2.4 0.1500000000003575
0.06625 2.55 0.1500000000003575
0.06625 2.7 0.1500000000003575
0.06625 2.85 0.1500000000003575
0.06625 0.15 0.1043666666669086
0.06625 0.3 0.1043666666669086
0.06625 0.45 0.1043666666669086
0.06625 0.6000000000000001 0.1043666666669086
0.06625 0.75 0.1043666666669086
0.06625 0.8999999999999999 0.1043666666669086
0.06625 1.05 0.1043666666669086
0.06625 1.2 0.1043666666669086
0.06625 1.35 0.1043666666669086
0.06625 1.5 0.1043666666669086
0.06625 1.65 0.1043666666669086
0.06625 1.8 0.1043666666669086
0.06625 1.95 0.1043666666669086
0.06625 2.1 0.1043666666669086
0.06625 2.25 0.1043666666669086
0.06625 2.4 0.1043666666669086
0.06625 2.55 0.1043666666669086
0.06625 2.7 0.1043666666669086
0.06625 2.85 0.1043666666669086
0.06625 0.15 0.05873333333345391
0.06625 0.3 0.05873333333345391
0.06625 0.45 0.05873333333345391
0.06625 0.6000000000000001 0.05873333333345391
0.06625 0.75 0.05873333333345391
0.06625 0.8999999999999999 0.05873333333345391
0.06625 1.05 0.05873333333345391
0.06625 1.2 0.05873333333345391
0.06625 1.35 0.05873333333345391
0.06625 1.5 0.05873333333345391
0.06625 1.65 0.05873333333345391
0.06625 1.8 0.05873333333345391
0.06625 1.95 0.05873333333345391
0.06625 2.1 0.05873333333345391
0.06625 2.25 0.05873333333345391
0.06625 2.4 0.05873333333345391
0.06625 2.55 0.05873333333345391
0.06625 2.7 0.05873333333345391
0.06625 2.85 0.05873333333345391
2 69 0 19
612
613
614
615
616
617
618
619
620
621
622
623
624
625
626
627
628
629
630
0.03312500000009101 0.15 0.0131
0.03312500000009101 0.3 0.0131
0.03312500000009101 0.45 0.0131
0.03312500000009101 0.6000000000000001 0.0131
0.03312500000009101 0.75 0.0131
0.03312500000009101 0.8999999999999999 0.0131
0.03312500000009101 1.05 0.0131
0.03312500000009101 1.2 0.0131
0.03312500000009101 1.35 0.0131
0.03312500000009101 1.5 0.0131
0.03312500000009101 1.65 0.0131
0.03312500000009101 1.8 0.0131
0.03312500000009101 1.95 0.0131
0.03312500000009101 2.1 0.0131
0.03312500000009101 2.25 0.0131
0.03312500000009101 2.4 0.0131
0.03312500000009101 2.55 0.0131
0.03312500000009101 2.7 0.0131
0.03312500000009101 2.85 0.0131
2 73 0 0
2 74 0 0
3 1 0 0
$EndNodes
$Elements
75 1540 1 1540
0 1 15 1
1 1 
0 2 15 1
2 2 
0 3 15 1
3 3 
0 4 15 1
4 4 
0 5 15 1
5 5 
0 6 15 1
6 6 
0 7 15 1
7 7 
0 8 15 1
8 8 
0 9 15 1
9 9 
0 10 15 1
10 10 
0 11 15 1
11 11 
0 12 15 1
12 12 
0 13 15 1
13 13 
0 14 15 1
14 14 
0 18 15 1
15 15 
0 22 15 1
16 16 
0 26 15 1
17 17 
0 30 15 1
18 18 
0 34 15 1
19 19 
0 38 15 1
20 20 
0 42 15 1
21 21 
0 46 15 1
22 22 
0 50 15 1
23 23 
0 54 15 1
24 24 
1 1 1 3
25 1 25 
26 25 26 
27 26 2 
1 2 1 1
28 2 3 
1 3 1 2
29 3 27 
30 27 4 
1 4 1 6
31 4 28 
32 28 29 
33 29 30 
34 30 31 
35 31 32 
36 32 5 
1 5 1 2
37 5 33 
38 33 6 
1 6 1 1
39 6 7 
1 7 1 3
40 7 34 
41 34 35 
42 35 8 
1 8 1 1
43 8 9 
1 9 1 2
44 9 36 
45 36 10 
1 10 1 6
46 10 37 
47 37 38 
48 38 39 
49 39 40 
50 40 41 
51 41 11 
1 11 1 2
52 11 42 
53 42 12 
1 12 1 1
54 12 1 
1 14 1 3
55 13 43 
56 43 44 
57 44 14 
1 15 1 1
58 14 15 
1 16 1 2
59 15 45 
60 45 16 
1 17 1 6
61 16 46 
62 46 47 
63 47 48 
64 48 49 
65 49 50 
66 50 17 
1 18 1 2
67 17 51 
68 51 18 
1 19 1 1
69 18 19 
1 20 1 3
70 19 52 
71 52 53 
72 53 20 
1 21 1 1
73 20 21 
1 22 1 2
74 21 54 
75 54 22 
1 23 1 6
76 22 55 
77 55 56 
78 56 57 
79 57 58 
80 58 59 
81 59 23 
1 24 1 2
82 23 60 
83 60 24 
1 25 1 1
84 24 13 
1 27 1 20
85 1 61 
86 61 62 
87 62 63 
88 63 64 
89 64 65 
90 65 66 
91 66 67 
92 67 68 
93 68 69 
94 69 70 
95 70 71 
96 71 72 
97 72 73 
98 73 74 
99 74 75 
100 75 76 
101 76 77 
102 77 78 
103 78 79 
104 79 13 
1 28 1 20
105 2 80 
106 80 81 
107 81 82 
108 82 83 
109 83 84 
110 84 85 
111 85 86 
112 86 87 
113 87 88 
114 88 89 
115 89 90 
116 90 91 
117 91 92 
118 92 93 
119 93 94 
120 94 95 
121 95 96 
122 96 97 
123 97 98 
124 98 14 
1 32 1 20
125 3 99 
126 99 100 
127 100 101 
128 101 102 
129 102 103 
130 103 104 
131 104 105 
132 105 106 
133 106 107 
134 107 108 
135 108 109 
136 109 110 
137 110 111 
138 111 112 
139 112 113 
140 113 114 
141 114 115 
142 115 116 
143 116 117 
144 117 15 
1 36 1 20
145 4 118 
146 118 119 
147 119 120 
148 120 121 
149 121 122 
150 122 123 
151 123 124 
152 124 125 
153 125 126 
154 126 127 
155 127 128 
156 128 129 
157 129 130 
158 130 131 
159 131 132 
160 132 133 
161 133 134 
162 134 135 
163 135 136 
164 136 16 
1 40 1 20
165 5 137 
166 137 138 
167 138 139 
168 139 140 
169 140 141 
170 141 142 
171 142 143 
172 143 144 
173 144 145 
174 145 146 
175 146 147 
176 147 148 
177 148 149 
178 149 150 
179 150 151 
180 151 152 
181 152 153 
182 153 154 
183 154 155 
184 155 17 
1 44 1 20
185 6 156 
186 156 157 
187 157 158 
188 158 159 
189 159 160 
190 160 161 
191 161 162 
192 162 163 
193 163 164 
194 164 165 
195 165 166 
196 166 167 
197 167 168 
198 168 169 
199 169 170 
200 170 171 
201 171 172 
202 172 173 
203 173 174 
204 174 18 
1 48 1 20
205 7 175 
206 175 176 
207 176 177 
208 177 178 
209 178 179 
210 179 180 
211 180 181 
212 181 182 
213 182 183 
214 183 184 
215 184 185 
216 185 186 
217 186 187 
218 187 188 
219 188 189 
220 189 190 
221 190 191 
222 191 192 
223 192 193 
224 193 19 
1 52 1 20
225 8 194 
226 194 195 
227 195 196 
228 196 197 
229 197 198 
230 198 199 
231 199 200 
232 200 201 
233 201 202 
234 202 203 
235 203 204 
236 204 205 
237 205 206 
238 206 207 
239 207 208 
240 208 209 
241 209 210 
242 210 211 
243 211 212 
244 212 20 
1 56 1 20
245 9 213 
246 213 214 
247 214 215 
248 215 216 
249 216 217 
250 217 218 
251 218 219 
252 219 220 
253 220 221 
254 221 222 
255 222 223 
256 223 224 
257 224 225 
258 225 226 
259 226 227 
260 227 228 
261 228 229 
262 229 230 
263 230 231 
264 231 21 
1 60 1 20
265 10 232 
266 232 233 
267 233 234 
268 234 235 
269 235 236 
270 236 237 
271 237 238 
272 238 239 
273 239 240 
274 240 241 
275 241 242 
276 242 243 
277 243 244 
278 244 245 
279 245 246 
280 246 247 
281 247 248 
282 248 249 
283 249 250 
284 250 22 
1 64 1 20
285 11 251 
286 251 252 
287 252 253 
288 253 254 
289 254 255 
290 255 256 
291 256 257 
292 257 258 
293 258 259 
294 259 260 
295 260 261 
296 261 262 
297 262 263 
298 263 264 
299 264 265 
300 265 266 
301 266 267 
302 267 268 
303 268 269 
304 269 23 
1 68 1 20
305 12 270 
306 270 271 
307 271 272 
308 272 273 
309 273 274 
310 274 275 
311 275 276 
312 276 277 
313 277 278 
314 278 279 
315 279 280 
316 280 281 
317 281 282 
318 282 283 
319 283 284 
320 284 285 
321 285 286 
322 286 287 
323 287 288 
324 288 24 
2 1 2 28
325 35 10 5 
326 4 11 26 
327 42 12 1 
328 25 42 1 
329 3 27 2 
330 27 26 2 
331 28 11 4 
332 27 4 26 
333 10 37 5 
334 37 32 5 
335 33 34 5 
336 34 35 5 
337 7 33 6 
338 34 33 7 
339 9 36 8 
340 36 35 8 
341 35 36 10 
342 26 11 25 
343 11 42 25 
344 41 11 28 
345 29 41 28 
346 30 40 29 
347 40 41 29 
348 31 39 30 
349 39 40 30 
350 32 38 31 
351 38 39 31 
352 37 38 32 
2 29 3 60
353 1 25 289 61 
354 61 289 290 62 
355 62 290 291 63 
356 63 291 292 64 
357 64 292 293 65 
358 65 293 294 66 
359 66 294 295 67 
360 67 295 296 68 
361 68 296 297 69 
362 69 297 298 70 
363 70 298 299 71 
364 71 299 300 72 
365 72 300 301 73 
366 73 301 302 74 
367 74 302 303 75 
368 75 303 304 76 
369 76 304 305 77 
370 77 305 306 78 
371 78 306 307 79 
372 79 307 43 13 
373 25 26 308 289 
374 289 308 309 290 
375 290 309 310 291 
376 291 310 311 292 
377 292 311 312 293 
378 293 312 313 294 
379 294 313 314 295 
380 295 314 315 296 
381 296 315 316 297 
382 297 316 317 298 
383 298 317 318 299 
384 299 318 319 300 
385 300 319 320 301 
386 301 320 321 302 
387 302 321 322 303 
388 303 322 323 304 
389 304 323 324 305 
390 305 324 325 306 
391 306 325 326 307 
392 307 326 44 43 
393 26 2 80 308 
394 308 80 81 309 
395 309 81 82 310 
396 310 82 83 311 
397 311 83 84 312 
398 312 84 85 313 
399 313 85 86 314 
400 314 86 87 315 
401 315 87 88 316 
402 316 88 89 317 
403 317 89 90 318 
404 318 90 91 319 
405 319 91 92 320 
406 320 92 93 321 
407 321 93 94 322 
408 322 94 95 323 
409 323 95 96 324 
410 324 96 97 325 
411 325 97 98 326 
412 326 98 14 44 
2 33 3 20
413 2 3 99 80 
414 80 99 100 81 
415 81 100 101 82 
416 82 101 102 83 
417 83 102 103 84 
418 84 103 104 85 
419 85 104 105 86 
420 86 105 106 87 
421 87 106 107 88 
422 88 107 108 89 
423 89 108 109 90 
424 90 109 110 91 
425 91 110 111 92 
426 92 111 112 93 
427 93 112 113 94 
428 94 113 114 95 
429 95 114 115 96 
430 96 115 116 97 
431 97 116 117 98 
432 98 117 15 14 
2 37 3 40
433 3 27 327 99 
434 99 327 328 100 
435 100 328 329 101 
436 101 329 330 102 
437 102 330 331 103 
438 103 331 332 104 
439 104 332 333 105 
440 105 333 334 106 
441 106 334 335 107 
442 107 335 336 108 
443 108 336 337 109 
444 109 337 338 110 
445 110 338 339 111 
446 111 339 340 112 
447 112 340 341 113 
448 113 341 342 114 
449 114 342 343 115 
450 115 343 344 116 
451 116 344 345 117 
452 117 345 45 15 
453 27 4 118 327 
454 327 118 119 328 
455 328 119 120 329 
456 329 120 121 330 
457 330 121 122 331 
458 331 122 123 332 
459 332 123 124 333 
460 333 124 125 334 
461 334 125 126 335 
462 335 126 127 336 
463 336 127 128 337 
464 337 128 129 338 
465 338 129 130 339 
466 339 130 131 340 
467 340 131 132 341 
468 341 132 133 342 
469 342 133 134 343 
470 343 134 135 344 
471 344 135 136 345 
472 345 136 16 45 
2 41 3 120
473 4 28 346 118 
474 118 346 347 119 
475 119 347 348 120 
476 120 348 349 121 
477 121 349 350 122 
478 122 350 351 123 
479 123 351 352 124 
480 124 352 353 125 
481 125 353 354 126 
482 126 354 355 127 
483 127 355 356 128 
484 128 356 357 129 
485 129 357 358 130 
486 130 358 359 131 
487 131 359 360 132 
488 132 360 361 133 
489 133 361 362 134 
490 134 362 363 135 
491 135 363 364 136 
492 136 364 46 16 
493 28 29 365 346 
494 346 365 366 347 
495 347 366 367 348 
496 348 367 368 349 
497 349 368 369 350 
498 350 369 370 351 
499 351 370 371 352 
500 352 371 372 353 
501 353 372 373 354 
502 354 373 374 355 
503 355 374 375 356 
504 356 375 376 357 
505 357 376 377 358 
506 358 377 378 359 
507 359 378 379 360 
508 360 379 380 361 
509 361 380 381 362 
510 362 381 382 363 
511 363 382 383 364 
512 364 383 47 46 
513 29 30 384 365 
514 365 384 385 366 
515 366 385 386 367 
516 367 386 387 368 
517 368 387 388 369 
518 369 388 389 370 
519 370 389 390 371 
520 371 390 391 372 
521 372 391 392 373 
522 373 392 393 374 
523 374 393 394 375 
524 375 394 395 376 
525 376 395 396 377 
526 377 396 397 378 
527 378 397 398 379 
528 379 398 399 380 
529 380 399 400 381 
530 381 400 401 382 
531 382 401 402 383 
532 383 402 48 47 
533 30 31 403 384 
534 384 403 404 385 
535 385 404 405 386 
536 386 405 406 387 
537 387 406 407 388 
538 388 407 408 389 
539 389 408 409 390 
540 390 409 410 391 
541 391 410 411 392 
542 392 411 412 393 
543 393 412 413 394 
544 394 413 414 395 
545 395 414 415 396 
546 396 415 416 397 
547 397 416 417 398 
548 398 417 418 399 
549 399 418 419 400 
550 400 419 420 401 
551 401 420 421 402 
552 402 421 49 48 
553 31 32 422 403 
554 403 422 423 404 
555 404 423 424 405 
556 405 424 425 406 
557 406 425 426 407 
558 407 426 427 408 
559 408 427 428 409 
560 409 428 429 410 
561 410 429 430 411 
562 411 430 431 412 
563 412 431 432 413 
564 413 432 433 414 
565 414 433 434 415 
566 415 434 435 416 
567 416 435 436 417 
568 417 436 437 418 
569 418 437 438 419 
570 419 438 439 420 
571 420 439 440 421 
572 421 440 50 49 
573 32 5 137 422 
574 422 137 138 423 
575 423 138 139 424 
576 424 139 140 425 
577 425 140 141 426 
578 426 141 142 427 
579 427 142 143 428 
580 428 143 144 429 
581 429 144 145 430 
582 430 145 146 431 
583 431 146 147 432 
584 432 147 148 433 
585 433 148 149 434 
586 434 149 150 435 
587 435 150 151 436 
588 436 151 152 437 
589 437 152 153 438 
590 438 153 154 439 
591 439 154 155 440 
592 440 155 17 50 
2 45 3 40
593 5 33 441 137 
594 137 441 442 138 
595 138 442 443 139 
596 139 443 444 140 
597 140 444 445 141 
598 141 445 446 142 
599 142 446 447 143 
600 143 447 448 144 
601 144 448 449 145 
602 145 449 450 146 
603 146 450 451 147 
604 147 451 452 148 
605 148 452 453 149 
606 149 453 454 150 
607 150 454 455 151 
608 151 455 456 152 
609 152 456 457 153 
610 153 457 458 154 
611 154 458 459 155 
612 155 459 51 17 
613 33 6 156 441 
614 441 156 157 442 
615 442 157 158 443 
616 443 158 159 444 
617 444 159 160 445 
618 445 160 161 446 
619 446 161 162 447 
620 447 162 163 448 
621 448 163 164 449 
622 449 164 165 450 
623 450 165 166 451 
624 451 166 167 452 
625 452 167 168 453 
626 453 168 169 454 
627 454 169 170 455 
628 455 170 171 456 
629 456 171 172 457 
630 457 172 173 458 
631 458 173 174 459 
632 459 174 18 51 
2 49 3 20
633 6 7 175 156 
634 156 175 176 157 
635 157 176 177 158 
636 158 177 178 159 
637 159 178 179 160 
638 160 179 180 161 
639 161 180 181 162 
640 162 181 182 163 
641 163 182 183 164 
642 164 183 184 165 
643 165 184 185 166 
644 166 185 186 167 
645 167 186 187 168 
646 168 187 188 169 
647 169 188 189 170 
648 170 189 190 171 
649 171 190 191 172 
650 172 191 192 173 
651 173 192 193 174 
652 174 193 19 18 
2 53 3 60
653 7 34 460 175 
654 175 460 461 176 
655 176 461 462 177 
656 177 462 463 178 
657 178 463 464 179 
658 179 464 465 180 
659 180 465 466 181 
660 181 466 467 182 
661 182 467 468 183 
662 183 468 469 184 
663 184 469 470 185 
664 185 470 471 186 
665 186 471 472 187 
666 187 472 473 188 
667 188 473 474 189 
668 189 474 475 190 
669 190 475 476 191 
670 191 476 477 192 
671 192 477 478 193 
672 193 478 52 19 
673 34 35 479 460 
674 460 479 480 461 
675 461 480 481 462 
676 462 481 482 463 
677 463 482 483 464 
678 464 483 484 465 
679 465 484 485 466 
680 466 485 486 467 
681 467 486 487 468 
682 468 487 488 469 
683 469 488 489 470 
684 470 489 490 471 
685 471 490 491 472 
686 472 491 492 473 
687 473 492 493 474 
688 474 493 494 475 
689 475 494 495 476 
690 476 495 496 477 
691 477 496 497 478 
692 478 497 53 52 
693 35 8 194 479 
694 479 194 195 480 
695 480 195 196 481 
696 481 196 197 482 
697 482 197 198 483 
698 483 198 199 484 
699 484 199 200 485 
700 485 200 201 486 
701 486 201 202 487 
702 487 202 203 488 
703 488 203 204 489 
704 489 204 205 490 
705 490 205 206 491 
706 491 206 207 492 
707 492 207 208 493 
708 493 208 209 494 
709 494 209 210 495 
710 495 210 211 496 
711 496 211 212 497 
712 497 212 20 53 
2 57 3 20
713 8 9 213 194 
714 194 213 214 195 
715 195 214 215 196 
716 196 215 216 197 
717 197 216 217 198 
718 198 217 218 199 
719 199 218 219 200 
720 200 219 220 201 
721 201 220 221 202 
722 202 221 222 203 
723 203 222 223 204 
724 204 223 224 205 
725 205 224 225 206 
726 206 225 226 207 
727 207 226 227 208 
728 208 227 228 209 
729 209 228 229 210 
730 210 229 230 211 
731 211 230 231 212 
732 212 231 21 20 
2 61 3 40
733 9 36 498 213 
734 213 498 499 214 
735 214 499 500 215 
736 215 500 501 216 
737 216 501 502 217 
738 217 502 503 218 
739 218 503 504 219 
740 219 504 505 220 
741 220 505 506 221 
742 221 506 507 222 
743 222 507 508 223 
744 223 508 509 224 
745 224 509 510 225 
746 225 510 511 226 
747 226 511 512 227 
748 227 512 513 228 
749 228 513 514 229 
750 229 514 515 230 
751 230 515 516 231 
752 231 516 54 21 
753 36 10 232 498 
754 498 232 233 499 
755 499 233 234 500 
756 500 234 235 501 
757 501 235 236 502 
758 502 236 237 503 
759 503 237 238 504 
760 504 238 239 505 
761 505 239 240 506 
762 506 240 241 507 
763 507 241 242 508 
764 508 242 243 509 
765 509 243 244 510 
766 510 244 245 511 
767 511 245 246 512 
768 512 246 247 513 
769 513 247 248 514 
770 514 248 249 515 
771 515 249 250 516 
772 516 250 22 54 
2 65 3 120
773 10 37 517 232 
774 232 517 518 233 
775 233 518 519 234 
776 234 519 520 235 
777 235 520 521 236 
778 236 521 522 237 
779 237 522 523 238 
780 238 523 524 239 
781 239 524 525 240 
782 240 525 526 241 
783 241 526 527 242 
784 242 527 528 243 
785 243 528 529 244 
786 244 529 530 245 
787 245 530 531 246 
788 246 531 532 247 
789 247 532 533 248 
790 248 533 534 249 
791 249 534 535 250 
792 250 535 55 22 
793 37 38 536 517 
794 517 536 537 518 
795 518 537 538 519 
796 519 538 539 520 
797 520 539 540 521 
798 521 540 541 522 
799 522 541 542 523 
800 523 542 543 524 
801 524 543 544 525 
802 525 544 545 526 
803 526 545 546 527 
804 527 546 547 528 
805 528 547 548 529 
806 529 548 549 530 
807 530 549 550 531 
808 531 550 551 532 
809 532 551 552 533 
810 533 552 553 534 
811 534 553 554 535 
812 535 554 56 55 
813 38 39 555 536 
814 536 555 556 537 
815 537 556 557 538 
816 538 557 558 539 
817 539 558 559 540 
818 540 559 560 541 
819 541 560 561 542 
820 542 561 562 543 
821 543 562 563 544 
822 544 563 564 545 
823 545 564 565 546 
824 546 565 566 547 
825 547 566 567 548 
826 548 567 568 549 
827 549 568 569 550 
828 550 569 570 551 
829 551 570 571 552 
830 552 571 572 553 
831 553 572 573 554 
832 554 573 57 56 
833 39 40 574 555 
834 555 574 575 556 
835 556 575 576 557 
836 557 576 577 558 
837 558 577 578 559 
838 559 578 579 560 
839 560 579 580 561 
840 561 580 581 562 
841 562 581 582 563 
842 563 582 583 564 
843 564 583 584 565 
844 565 584 585 566 
845 566 585 586 567 
846 567 586 587 568 
847 568 587 588 569 
848 569 588 589 570 
849 570 589 590 571 
850 571 590 591 572 
851 572 591 592 573 
852 573 592 58 57 
853 40 41 593 574 
854 574 593 594 575 
855 575 594 595 576 
856 576 595 596 577 
857 577 596 597 578 
858 578 597 598 579 
859 579 598 599 580 
860 580 599 600 581 
861 581 600 601 582 
862 582 601 602 583 
863 583 602 603 584 
864 584 603 604 585 
865 585 604 605 586 
866 586 605 606 587 
867 587 606 607 588 
868 588 607 608 589 
869 589 608 609 590 
870 590 609 610 591 
871 591 610 611 592 
872 592 611 59 58 
873 41 11 251 593 
874 593 251 252 594 
875 594 252 253 595 
876 595 253 254 596 
877 596 254 255 597 
878 597 255 256 598 
879 598 256 257 599 
880 599 257 258 600 
881 600 258 259 601 
882 601 259 260 602 
883 602 260 261 603 
884 603 261 262 604 
885 604 262 263 605 
886 605 263 264 606 
887 606 264 265 607 
888 607 265 266 608 
889 608 266 267 609 
890 609 267 268 610 
891 610 268 269 611 
892 611 269 23 59 
2 69 3 40
893 11 42 612 251 
894 251 612 613 252 
895 252 613 614 253 
896 253 614 615 254 
897 254 615 616 255 
898 255 616 617 256 
899 256 617 618 257 
900 257 618 619 258 
901 258 619 620 259 
902 259 620 621 260 
903 260 621 622 261 
904 261 622 623 262 
905 262 623 624 263 
906 263 624 625 264 
907 264 625 626 265 
908 265 626 627 266 
909 266 627 628 267 
910 267 628 629 268 
911 268 629 630 269 
912 269 630 60 23 
913 42 12 270 612 
914 612 270 271 613 
915 613 271 272 614 
916 614 272 273 615 
917 615 273 274 616 
918 616 274 275 617 
919 617 275 276 618 
920 618 276 277 619 
921 619 277 278 620 
922 620 278 279 621 
923 621 279 280 622 
924 622 280 281 623 
925 623 281 282 624 
926 624 282 283 625 
927 625 283 284 626 
928 626 284 285 627 
929 627 285 286 628 
930 628 286 287 629 
931 629 287 288 630 
932 630 288 24 60 
2 73 3 20
933 12 1 61 270 
934 270 61 62 271 
935 271 62 63 272 
936 272 63 64 273 
937 273 64 65 274 
938 274 65 66 275 
939 275 66 67 276 
940 276 67 68 277 
941 277 68 69 278 
942 278 69 70 279 
943 279 70 71 280 
944 280 71 72 281 
945 281 72 73 282 
946 282 73 74 283 
947 283 74 75 284 
948 284 75 76 285 
949 285 76 77 286 
950 286 77 78 287 
951 287 78 79 288 
952 288 79 13 24 
2 74 2 28
953 53 22 17 
954 16 23 44 
955 60 24 13 
956 43 60 13 
957 15 45 14 
958 45 44 14 
959 46 23 16 
960 45 16 44 
961 22 55 17 
962 55 50 17 
963 51 52 17 
964 52 53 17 
965 19 51 18 
966 52 51 19 
967 21 54 20 
968 54 53 20 
969 53 54 22 
970 44 23 43 
971 23 60 43 
972 59 23 46 
973 47 59 46 
974 48 58 47 
975 58 59 47 
976 49 57 48 
977 57 58 48 
978 50 56 49 
979 56 57 49 
980 55 56 50 
3 1 6 560
981 10 35 5 232 479 137 
982 232 479 137 233 480 138 
983 233 480 138 234 481 139 
984 234 481 139 235 482 140 
985 235 482 140 236 483 141 
986 236 483 141 237 484 142 
987 237 484 142 238 485 143 
988 238 485 143 239 486 144 
989 239 486 144 240 487 145 
990 240 487 145 241 488 146 
991 241 488 146 242 489 147 
992 242 489 147 243 490 148 
993 243 490 148 244 491 149 
994 244 491 149 245 492 150 
995 245 492 150 246 493 151 
996 246 493 151 247 494 152 
997 247 494 152 248 495 153 
998 248 495 153 249 496 154 
999 249 496 154 250 497 155 
1000 250 497 155 22 53 17 
1001 11 4 26 251 118 308 
1002 251 118 308 252 119 309 
1003 252 119 309 253 120 310 
1004 253 120 310 254 121 311 
1005 254 121 311 255 122 312 
1006 255 122 312 256 123 313 
1007 256 123 313 257 124 314 
1008 257 124 314 258 125 315 
1009 258 125 315 259 126 316 
1010 259 126 316 260 127 317 
1011 260 127 317 261 128 318 
1012 261 128 318 262 129 319 
1013 262 129 319 263 130 320 
1014 263 130 320 264 131 321 
1015 264 131 321 265 132 322 
1016 265 132 322 266 133 323 
1017 266 133 323 267 134 324 
1018 267 134 324 268 135 325 
1019 268 135 325 269 136 326 
1020 269 136 326 23 16 44 
1021 12 42 1 270 612 61 
1022 270 612 61 271 613 62 
1023 271 613 62 272 614 63 
1024 272 614 63 273 615 64 
1025 273 615 64 274 616 65 
1026 274 616 65 275 617 66 
1027 275 617 66 276 618 67 
1028 276 618 67 277 619 68 
1029 277 619 68 278 620 69 
1030 278 620 69 279 621 70 
1031 279 621 70 280 622 71 
1032 280 622 71 281 623 72 
1033 281 623 72 282 624 73 
1034 282 624 73 283 625 74 
1035 283 625 74 284 626 75 
1036 284 626 75 285 627 76 
1037 285 627 76 286 628 77 
1038 286 628 77 287 629 78 
1039 287 629 78 288 630 79 
1040 288 630 79 24 60 13 
1041 42 25 1 612 289 61 
1042 612 289 61 613 290 62 
1043 613 290 62 614 291 63 
1044 614 291 63 615 292 64 
1045 615 292 64 616 293 65 
1046 616 293 65 617 294 66 
1047 617 294 66 618 295 67 
1048 618 295 67 619 296 68 
1049 619 296 68 620 297 69 
1050 620 297 69 621 298 70 
1051 621 298 70 622 299 71 
1052 622 299 71 623 300 72 
1053 623 300 72 624 301 73 
1054 624 301 73 625 302 74 
1055 625 302 74 626 303 75 
1056 626 303 75 627 304 76 
1057 627 304 76 628 305 77 
1058 628 305 77 629 306 78 
1059 629 306 78 630 307 79 
1060 630 307 79 60 43 13 
1061 27 3 2 327 99 80 
1062 327 99 80 328 100 81 
1063 328 100 81 329 101 82 
1064 329 101 82 330 102 83 
1065 330 102 83 331 103 84 
1066 331 103 84 332 104 85 
1067 332 104 85 333 105 86 
1068 333 105 86 334 106 87 
1069 334 106 87 335 107 88 
1070 335 107 88 336 108 89 
1071 336 108 89 337 109 90 
1072 337 109 90 338 110 91 
1073 338 110 91 339 111 92 
1074 339 111 92 340 112 93 
1075 340 112 93 341 113 94 
1076 341 113 94 342 114 95 
1077 342 114 95 343 115 96 
1078 343 115 96 344 116 97 
1079 344 116 97 345 117 98 
1080 345 117 98 45 15 14 
1081 26 27 2 308 327 80 
1082 308 327 80 309 328 81 
1083 309 328 81 310 329 82 
1084 310 329 82 311 330 83 
1085 311 330 83 312 331 84 
1086 312 331 84 313 332 85 
1087 313 332 85 314 333 86 
1088 314 333 86 315 334 87 
1089 315 334 87 316 335 88 
1090 316 335 88 317 336 89 
1091 317 336 89 318 337 90 
1092 318 337 90 319 338 91 
1093 319 338 91 320 339 92 
1094 320 339 92 321 340 93 
1095 321 340 93 322 341 94 
1096 322 341 94 323 342 95 
1097 323 342 95 324 343 96 
1098 324 343 96 325 344 97 
1099 325 344 97 326 345 98 
1100 326 345 98 44 45 14 
1101 11 28 4 251 346 118 
1102 251 346 118 252 347 119 
1103 252 347 119 253 348 120 
1104 253 348 120 254 349 121 
1105 254 349 121 255 350 122 
1106 255 350 122 256 351 123 
1107 256 351 123 257 352 124 
1108 257 352 124 258 353 125 
1109 258 353 125 259 354 126 
1110 259 354 126 260 355 127 
1111 260 355 127 261 356 128 
1112 261 356 128 262 357 129 
1113 262 357 129 263 358 130 
1114 263 358 130 264 359 131 
1115 264 359 131 265 360 132 
1116 265 360 132 266 361 133 
1117 266 361 133 267 362 134 
1118 267 362 134 268 363 135 
1119 268 363 135 269 364 136 
1120 269 364 136 23 46 16 
1121 4 27 26 118 327 308 
1122 118 327 308 119 328 309 
1123 119 328 309 120 329 310 
1124 120 329 310 121 330 311 
1125 121 330 311 122 331 312 
1126 122 331 312 123 332 313 
1127 123 332 313 124 333 314 
1128 124 333 314 125 334 315 
1129 125 334 315 126 335 316 
1130 126 335 316 127 336 317 
1131 127 336 317 128 337 318 
1132 128 337 318 129 338 319 
1133 129 338 319 130 339 320 
1134 130 339 320 131 340 321 
1135 131 340 321 132 341 322 
1136 132 341 322 133 342 323 
1137 133 342 323 134 343 324 
1138 134 343 324 135 344 325 
1139 135 344 325 136 345 326 
1140 136 345 326 16 45 44 
1141 37 10 5 517 232 137 
1142 517 232 137 518 233 138 
1143 518 233 138 519 234 139 
1144 519 234 139 520 235 140 
1145 520 235 140 521 236 141 
1146 521 236 141 522 237 142 
1147 522 237 142 523 238 143 
1148 523 238 143 524 239 144 
1149 524 239 144 525 240 145 
1150 525 240 145 526 241 146 
1151 526 241 146 527 242 147 
1152 527 242 147 528 243 148 
1153 528 243 148 529 244 149 
1154 529 244 149 530 245 150 
1155 530 245 150 531 246 151 
1156 531 246 151 532 247 152 
1157 532 247 152 533 248 153 
1158 533 248 153 534 249 154 
1159 534 249 154 535 250 155 
1160 535 250 155 55 22 17 
1161 32 37 5 422 517 137 
1162 422 517 137 423 518 138 
1163 423 518 138 424 519 139 
1164 424 519 139 425 520 140 
1165 425 520 140 426 521 141 
1166 426 521 141 427 522 142 
1167 427 522 142 428 523 143 
1168 428 523 143 429 524 144 
1169 429 524 144 430 525 145 
1170 430 525 145 431 526 146 
1171 431 526 146 432 527 147 
1172 432 527 147 433 528 148 
1173 433 528 148 434 529 149 
1174 434 529 149 435 530 150 
1175 435 530 150 436 531 151 
1176 436 531 151 437 532 152 
1177 437 532 152 438 533 153 
1178 438 533 153 439 534 154 
1179 439 534 154 440 535 155 
1180 440 535 155 50 55 17 
1181 34 33 5 460 441 137 
1182 460 441 137 461 442 138 
1183 461 442 138 462 443 139 
1184 462 443 139 463 444 140 
1185 463 444 140 464 445 141 
1186 464 445 141 465 446 142 
1187 465 446 142 466 447 143 
1188 466 447 143 467 448 144 
1189 467 448 144 468 449 145 
1190 468 449 145 469 450 146 
1191 469 450 146 470 451 147 
1192 470 451 147 471 452 148 
1193 471 452 148 472 453 149 
1194 472 453 149 473 454 150 
1195 473 454 150 474 455 151 
1196 474 455 151 475 456 152 
1197 475 456 152 476 457 153 
1198 476 457 153 477 458 154 
1199 477 458 154 478 459 155 
1200 478 459 155 52 51 17 
1201 35 34 5 479 460 137 
1202 479 460 137 480 461 138 
1203 480 461 138 481 462 139 
1204 481 462 139 482 463 140 
1205 482 463 140 483 464 141 
1206 483 464 141 484 465 142 
1207 484 465 142 485 466 143 
1208 485 466 143 486 467 144 
1209 486 467 144 487 468 145 
1210 487 468 145 488 469 146 
1211 488 469 146 489 470 147 
1212 489 470 147 490 471 148 
1213 490 471 148 491 472 149 
1214 491 472 149 492 473 150 
1215 492 473 150 493 474 151 
1216 493 474 151 494 475 152 
1217 494 475 152 495 476 153 
1218 495 476 153 496 477 154 
1219 496 477 154 497 478 155 
1220 497 478 155 53 52 17 
1221 33 7 6 441 175 156 
1222 441 175 156 442 176 157 
1223 442 176 157 443 177 158 
1224 443 177 158 444 178 159 
1225 444 178 159 445 179 160 
1226 445 179 160 446 180 161 
1227 446 180 161 447 181 162 
1228 447 181 162 448 182 163 
1229 448 182 163 449 183 164 
1230 449 183 164 450 184 165 
1231 450 184 165 451 185 166 
1232 451 185 166 452 186 167 
1233 452 186 167 453 187 168 
1234 453 187 168 454 188 169 
1235 454 188 169 455 189 170 
1236 455 189 170 456 190 171 
1237 456 190 171 457 191 172 
1238 457 191 172 458 192 173 
1239 458 192 173 459 193 174 
1240 459 193 174 51 19 18 
1241 33 34 7 441 460 175 
1242 441 460 175 442 461 176 
1243 442 461 176 443 462 177 
1244 443 462 177 444 463 178 
1245 444 463 178 445 464 179 
1246 445 464 179 446 465 180 
1247 446 465 180 447 466 181 
1248 447 466 181 448 467 182 
1249 448 467 182 449 468 183 
1250 449 468 183 450 469 184 
1251 450 469 184 451 470 185 
1252 451 470 185 452 471 186 
1253 452 471 186 453 472 187 
1254 453 472 187 454 473 188 
1255 454 473 188 455 474 189 
1256 455 474 189 456 475 190 
1257 456 475 190 457 476 191 
1258 457 476 191 458 477 192 
1259 458 477 192 459 478 193 
1260 459 478 193 51 52 19 
1261 36 9 8 498 213 194 
1262 498 213 194 499 214 195 
1263 499 214 195 500 215 196 
1264 500 215 196 501 216 197 
1265 501 216 197 502 217 198 
1266 502 217 198 503 218 199 
1267 503 218 199 504 219 200 
1268 504 219 200 505 220 201 
1269 505 220 201 506 221 202 
1270 506 221 202 507 222 203 
1271 507 222 203 508 223 204 
1272 508 223 204 509 224 205 
1273 509 224 205 510 225 206 
1274 510 225 206 511 226 207 
1275 511 226 207 512 227 208 
1276 512 227 208 513 228 209 
1277 513 228 209 514 229 210 
1278 514 229 210 515 230 211 
1279 515 230 211 516 231 212 
1280 516 231 212 54 21 20 
1281 35 36 8 479 498 194 
1282 479 498 194 480 499 195 
1283 480 499 195 481 500 196 
1284 481 500 196 482 501 197 
1285 482 501 197 483 502 198 
1286 483 502 198 484 503 199 
1287 484 503 199 485 504 200 
1288 485 504 200 486 505 201 
1289 486 505 201 487 506 202 
1290 487 506 202 488 507 203 
1291 488 507 203 489 508 204 
1292 489 508 204 490 509 205 
1293 490 509 205 491 510 206 
1294 491 510 206 492 511 207 
1295 492 511 207 493 512 208 
1296 493 512 208 494 513 209 
1297 494 513 209 495 514 210 
1298 495 514 210 496 515 211 
1299 496 515 211 497 516 212 
1300 497 516 212 53 54 20 
1301 36 35 10 498 479 232 
1302 498 479 232 499 480 233 
1303 499 480 233 500 481 234 
1304 500 481 234 501 482 235 
1305 501 482 235 502 483 236 
1306 502 483 236 503 484 237 
1307 503 484 237 504 485 238 
1308 504 485 238 505 486 239 
1309 505 486 239 506 487 240 
1310 506 487 240 507 488 241 
1311 507 488 241 508 489 242 
1312 508 489 242 509 490 243 
1313 509 490 243 510 491 244 
1314 510 491 244 511 492 245 
1315 511 492 245 512 493 246 
1316 512 493 246 513 494 247 
1317 513 494 247 514 495 248 
1318 514 495 248 515 496 249 
1319 515 496 249 516 497 250 
1320 516 497 250 54 53 22 
1321 11 26 25 251 308 289 
1322 251 308 289 252 309 290 
1323 252 309 290 253 310 291 
1324 253 310 291 254 311 292 
1325 254 311 292 255 312 293 
1326 255 312 293 256 313 294 
1327 256 313 294 257 314 295 
1328 257 314 295 258 315 296 
1329 258 315 296 259 316 297 
1330 259 316 297 260 317 298 
1331 260 317 298 261 318 299 
1332 261 318 299 262 319 300 
1333 262 319 300 263 320 301 
1334 263 320 301 264 321 302 
1335 264 321 302 265 322 303 
1336 265 322 303 266 323 304 
1337 266 323 304 267 324 305 
1338 267 324 305 268 325 306 
1339 268 325 306 269 326 307 
1340 269 326 307 23 44 43 
1341 42 11 25 612 251 289 
1342 612 251 289 613 252 290 
1343 613 252 290 614 253 291 
1344 614 253 291 615 254 292 
1345 615 254 292 616 255 293 
1346 616 255 293 617 256 294 
1347 617 256 294 618 257 295 
1348 618 257 295 619 258 296 
1349 619 258 296 620 259 297 
1350 620 259 297 621 260 298 
1351 621 260 298 622 261 299 
1352 622 261 299 623 262 300 
1353 623 262 300 624 263 301 
1354 624 263 301 625 264 302 
1355 625 264 302 626 265 303 
1356 626 265 303 627 266 304 
1357 627 266 304 628 267 305 
1358 628 267 305 629 268 306 
1359 629 268 306 630 269 307 
1360 630 269 307 60 23 43 
1361 11 41 28 251 593 346 
1362 251 593 346 252 594 347 
1363 252 594 347 253 595 348 
1364 253 595 348 254 596 349 
1365 254 596 349 255 597 350 
1366 255 597 350 256 598 351 
1367 256 598 351 257 599 352 
1368 257 599 352 258 600 353 
1369 258 600 353 259 601 354 
1370 259 601 354 260 602 355 
1371 260 602 355 261 603 356 
1372 261 603 356 262 604 357 
1373 262 604 357 263 605 358 
1374 263 605 358 264 606 359 
1375 264 606 359 265 607 360 
1376 265 607 360 266 608 361 
1377 266 608 361 267 609 362 
1378 267 609 362 268 610 363 
1379 268 610 363 269 611 364 
1380 269 611 364 23 59 46 
1381 41 29 28 593 365 346 
1382 593 365 346 594 366 347 
1383 594 366 347 595 367 348 
1384 595 367 348 596 368 349 
1385 596 368 349 597 369 350 
1386 597 369 350 598 370 351 
1387 598 370 351 599 371 352 
1388 599 371 352 600 372 353 
1389 600 372 353 601 373 354 
1390 601 373 354 602 374 355 
1391 602 374 355 603 375 356 
1392 603 375 356 604 376 357 
1393 604 376 357 605 377 358 
1394 605 377 358 606 378 359 
1395 606 378 359 607 379 360 
1396 607 379 360 608 380 361 
1397 608 380 361 609 381 362 
1398 609 381 362 610 382 363 
1399 610 382 363 611 383 364 
1400 611 383 364 59 47 46 
1401 40 30 29 574 384 365 
1402 574 384 365 575 385 366 
1403 575 385 366 576 386 367 
1404 576 386 367 577 387 368 
1405 577 387 368 578 388 369 
1406 578 388 369 579 389 370 
1407 579 389 370 580 390 371 
1408 580 390 371 581 391 372 
1409 581 391 372 582 392 373 
1410 582 392 373 583 393 374 
1411 583 393 374 584 394 375 
1412 584 394 375 585 395 376 
1413 585 395 376 586 396 377 
1414 586 396 377 587 397 378 
1415 587 397 378 588 398 379 
1416 588 398 379 589 399 380 
1417 589 399 380 590 400 381 
1418 590 400 381 591 401 382 
1419 591 401 382 592 402 383 
1420 592 402 383 58 48 47 
1421 41 40 29 593 574 365 
1422 593 574 365 594 575 366 
1423 594 575 366 595 576 367 
1424 595 576 367 596 577 368 
1425 596 577 368 597 578 369 
1426 597 578 369 598 579 370 
1427 598 579 370 599 580 371 
1428 599 580 371 600 581 372 
1429 600 581 372 601 582 373 
1430 601 582 373 602 583 374 
1431 602 583 374 603 584 375 
1432 603 584 375 604 585 376 
1433 604 585 376 605 586 377 
1434 605 586 377 606 587 378 
1435 606 587 378 607 588 379 
1436 607 588 379 608 589 380 
1437 608 589 380 609 590 381 
1438 609 590 381 610 591 382 
1439 610 591 382 611 592 383 
1440 611 592 383 59 58 47 
1441 39 31 30 555 403 384 
1442 555 403 384 556 404 385 
1443 556 404 385 557 405 386 
1444 557 405 386 558 406 387 
1445 558 406 387 559 407 388 
1446 559 407 388 560 408 389 
1447 560 408 389 561 409 390 
1448 561 409 390 562 410 391 
1449 562 410 391 563 411 392 
1450 563 411 392 564 412 393 
1451 564 412 393 565 413 394 
1452 565 413 394 566 414 395 
1453 566 414 395 567 415 396 
1454 567 415 396 568 416 397 
1455 568 416 397 569 417 398 
1456 569 417 398 570 418 399 
1457 570 418 399 571 419 400 
1458 571 419 400 572 420 401 
1459 572 420 401 573 421 402 
1460 573 421 402 57 49 48 
1461 40 39 30 574 555 384 
1462 574 555 384 575 556 385 
1463 575 556 385 576 557 386 
1464 576 557 386 577 558 387 
1465 577 558 387 578 559 388 
1466 578 559 388 579 560 389 
1467 579 560 389 580 561 390 
1468 580 561 390 581 562 391 
1469 581 562 391 582 563 392 
1470 582 563 392 583 564 393 
1471 583 564 393 584 565 394 
1472 584 565 394 585 566 395 
1473 585 566 395 586 567 396 
1474 586 567 396 587 568 397 
1475 587 568 397 588 569 398 
1476 588 569 398 589 570 399 
1477 589 570 399 590 571 400 
1478 590 571 400 591 572 401 
1479 591 572 401 592 573 402 
1480 592 573 402 58 57 48 
1481 38 32 31 536 422 403 
1482 536 422 403 537 423 404 
1483 537 423 404 538 424 405 
1484 538 424 405 539 425 406 
1485 539 425 406 540 426 407 
1486 540 426 407 541 427 408 
1487 541 427 408 542 428 409 
1488 542 428 409 543 429 410 
1489 543 429 410 544 430 411 
1490 544 430 411 545 431 412 
1491 545 431 412 546 432 413 
1492 546 432 413 547 433 414 
1493 547 433 414 548 434 415 
1494 548 434 415 549 435 416 
1495 549 435 416 550 436 417 
1496 550 436 417 551 437 418 
1497 551 437 418 552 438 419 
1498 552 438 419 553 439 420 
1499 553 439 420 554 440 421 
1500 554 440 421 56 50 49 
1501 39 38 31 555 536 403 
1502 555 536 403 556 537 404 
1503 556 537 404 557 538 405 
1504 557 538 405 558 539 406 
1505 558 539 406 559 540 407 
1506 559 540 407 560 541 408 
1507 560 541 408 561 542 409 
1508 561 542 409 562 543 410 
1509 562 543 410 563 544 411 
1510 563 544 411 564 545 412 
1511 564 545 412 565 546 413 
1512 565 546 413 566 547 414 
1513 566 547 414 567 548 415 
1514 567 548 415 568 549 416 
1515 568 549 416 569 550 417 
1516 569 550 417 570 551 418 
1517 570 551 418 571 552 419 
1518 571 552 419 572 553 420 
1519 572 553 420 573 554 421 
1520 573 554 421 57 56 49 
1521 38 37 32 536 517 422 
1522 536 517 422 537 518 423 
1523 537 518 423 538 519 424 
1524 538 519 424 539 520 425 
1525 539 520 425 540 521 426 
1526 540 521 426 541 522 427 
1527 541 522 427 542 523 428 
1528 542 523 428 543 524 429 
1529 543 524 429 544 525 430 
1530 544 525 430 545 526 431 
1531 545 526 431 546 527 432 
1532 546 527 432 547 528 433 
1533 547 528 433 548 529 434 
1534 548 529 434 549 530 435 
1535 549 530 435 550 531 436 
1536 550 531 436 551 532 437 
1537 551 532 437 552 533 438 
1538 552 533 438 553 534 439 
1539 553 534 439 554 535 440 
1540 554 535 440 56 55 50 
$EndElements
